<svg width="32" height="32" viewBox="0 0 32 32" fill="none" xmlns="http://www.w3.org/2000/svg">
<g clip-path="url(#clip0_5_16170)">
<circle cx="16" cy="16" r="16" fill="white"/>
<path d="M0 16.016C0 13.1387 0.724667 10.4427 2.174 7.928C3.62333 5.52 5.54133 3.602 7.928 2.174C10.4427 0.724667 13.1387 0 16.016 0C18.872 0 21.5573 0.724667 24.072 2.174C26.48 3.602 28.398 5.52 29.826 7.928C31.2753 10.4427 32 13.128 32 15.984C32 18.8613 31.2753 21.5573 29.826 24.072C28.398 26.4587 26.48 28.3767 24.072 29.826C21.5573 31.2753 18.872 32 16.016 32C13.1387 32 10.4427 31.2753 7.928 29.826C5.54133 28.3767 3.62333 26.4587 2.174 24.072C0.724667 21.5573 0 18.872 0 16.016H0ZM25.542 17.359C25.2433 16.741 24.8917 16.304 24.487 16.048C24.0823 15.792 23.4537 15.515 22.601 15.217C23.2617 14.7483 23.7147 14.3273 23.96 13.954C24.2053 13.5807 24.4023 13.0213 24.551 12.276C24.6363 11.7647 24.615 11.2743 24.487 10.805C24.2523 9.95233 23.8367 9.30233 23.24 8.855C22.622 8.365 22.004 8.056 21.386 7.928C20.64 7.75733 19.862 7.64 19.052 7.576V3.804H16.718V7.544H14.96V3.804H12.594V7.544H8.023V9.974H9.366C10.0267 9.974 10.4637 10.0913 10.677 10.326C10.8263 10.518 10.9117 10.6567 10.933 10.742C10.9757 10.9127 10.997 11.1363 10.997 11.413V21.035C10.997 21.355 10.9117 21.6 10.741 21.77C10.6983 21.8127 10.6397 21.8447 10.565 21.866C10.4903 21.8873 10.4423 21.9087 10.421 21.93C10.357 21.9727 10.1867 21.994 9.91 21.994H8.503L8.023 24.775H12.594V28.515H14.96V24.775H16.718V28.515H19.052V24.743C20.544 24.6363 21.567 24.4977 22.121 24.327C23.975 23.773 25.1153 22.846 25.542 21.546C25.7553 20.8853 25.8673 20.1767 25.878 19.42C25.8887 18.6633 25.7767 17.976 25.542 17.358V17.359ZM14.961 14.705V10.166C17.0923 10.166 18.4883 10.3047 19.149 10.582C19.9163 10.9227 20.3 11.5087 20.3 12.34C20.3213 13.1287 19.991 13.7147 19.309 14.098C18.5417 14.5027 17.3057 14.705 15.601 14.705H14.962H14.961ZM20.971 20.683C20.779 20.939 20.5127 21.1627 20.172 21.354C19.98 21.4607 19.607 21.5887 19.053 21.738C18.3283 21.93 16.9643 22.026 14.961 22.026V17.039C15.8137 16.975 16.5703 16.9483 17.231 16.959C17.8917 16.9697 18.5203 17.0603 19.117 17.231C19.3517 17.295 19.6927 17.4123 20.14 17.583C20.95 18.009 21.355 18.627 21.355 19.437C21.355 19.9483 21.227 20.364 20.971 20.684V20.683Z" fill="#F7941A"/>
<circle cx="16" cy="16" r="16" fill="url(#paint0_linear_5_16170)" fill-opacity="0.2"/>
</g>
<defs>
<linearGradient id="paint0_linear_5_16170" x1="16" y1="0" x2="16" y2="32" gradientUnits="userSpaceOnUse">
<stop stop-color="white"/>
<stop offset="1" stop-color="white" stop-opacity="0"/>
</linearGradient>
<clipPath id="clip0_5_16170">
<rect width="32" height="32" fill="white"/>
</clipPath>
</defs>
</svg>
